# xmcd
#
# Track frame offsets:
# 150
# 18401
# 34591
# 51666
# 68146
# 83320
# 98830
# 112941
# 126434
# 154869
#
# Disc length: 2273 seconds
#
#
# Revision: 0
# Processed by: cddbd v1.5.1PL0 Copyright (c) Steve Scherf et al.
# Submitted via: FreeRIP 2.80 
#
DISCID=7908df0a
DTITLE=Steve Singh - I will not break your heart
DYEAR=1900
DGENRE=Acoustic
TTITLE0=Ill make u wanna stay
TTITLE1=a little squirrel like u
TTITLE2=this teacher has retired
TTITLE3=NYC vs Jefrey Brown
TTITLE4=Skip the flowers
TTITLE5=twice her size half her age
TTITLE6=sweet summer song
TTITLE7=gimme three
TTITLE8=what a lazy week
TTITLE9=the part is over
EXTD=
EXTT0=
EXTT1=
EXTT2=
EXTT3=
EXTT4=
EXTT5=
EXTT6=
EXTT7=
EXTT8=
EXTT9=
PLAYORDER=
